HIERARCHY
ROOT Hips
{
	OFFSET 0.00000 0.00000 0.00000
	CHANNELS 6 Xposition Yposition Zposition Zrotation Yrotation Xrotation 
	JOINT LHipJoint
	{
		OFFSET 0 0 0
		CHANNELS 3 Zrotation Yrotation Xrotation
		JOINT LeftUpLeg
		{
			OFFSET 1.62964 -1.40469 0.78906
			CHANNELS 3 Zrotation Yrotation Xrotation
			JOINT LeftLeg
			{
				OFFSET 2.29640 -6.30932 0.00000
				CHANNELS 3 Zrotation Yrotation Xrotation
				JOINT LeftFoot
				{
					OFFSET 2.29451 -6.30412 0.00000
					CHANNELS 3 Zrotation Yrotation Xrotation
					JOINT LeftToeBase
					{
						OFFSET 0.03611 -0.09921 1.56387
						CHANNELS 3 Zrotation Yrotation Xrotation
						End Site
						{
							OFFSET 0.00000 -0.00000 0.80291
						}
					}
				}
			}
		}
	}
	JOINT RHipJoint
	{
		OFFSET 0 0 0
		CHANNELS 3 Zrotation Yrotation Xrotation
		JOINT RightUpLeg
		{
			OFFSET -1.73712 -1.40469 0.78906
			CHANNELS 3 Zrotation Yrotation Xrotation
			JOINT RightLeg
			{
				OFFSET -2.28137 -6.26801 0.00000
				CHANNELS 3 Zrotation Yrotation Xrotation
				JOINT RightFoot
				{
					OFFSET -2.28681 -6.28298 0.00000
					CHANNELS 3 Zrotation Yrotation Xrotation
					JOINT RightToeBase
					{
						OFFSET -0.15927 -0.43759 1.61103
						CHANNELS 3 Zrotation Yrotation Xrotation
						End Site
						{
							OFFSET -0.00000 -0.00000 0.84630
						}
					}
				}
			}
		}
	}
	JOINT LowerBack
	{
		OFFSET 0 0 0
		CHANNELS 3 Zrotation Yrotation Xrotation
		JOINT Spine
		{
			OFFSET -0.04227 2.04338 -0.00225
			CHANNELS 3 Zrotation Yrotation Xrotation
			JOINT Spine1
			{
				OFFSET -0.02148 2.04482 -0.04273
				CHANNELS 3 Zrotation Yrotation Xrotation
				JOINT Neck
				{
					OFFSET 0 0 0
					CHANNELS 3 Zrotation Yrotation Xrotation
					JOINT Neck1
					{
						OFFSET 0.09180 1.44629 0.19359
						CHANNELS 3 Zrotation Yrotation Xrotation
						JOINT Head
						{
							OFFSET 0.00887 1.40645 0.14750
							CHANNELS 3 Zrotation Yrotation Xrotation
							End Site
							{
								OFFSET -0.00669 1.50671 0.03707
							}
						}
					}
				}
				JOINT LeftShoulder
				{
					OFFSET 0 0 0
					CHANNELS 3 Zrotation Yrotation Xrotation
					JOINT LeftArm
					{
						OFFSET 2.17674 1.86763 -0.06520
						CHANNELS 3 Zrotation Yrotation Xrotation
						JOINT LeftForeArm
						{
							OFFSET 4.65776 -0.00000 0.00000
							CHANNELS 3 Zrotation Yrotation Xrotation
							JOINT LeftHand
							{
								OFFSET 3.55539 -0.00000 0.00000
								CHANNELS 3 Zrotation Yrotation Xrotation
								JOINT LeftFingerBase
								{
									OFFSET 0 0 0
									CHANNELS 3 Zrotation Yrotation Xrotation
									JOINT LeftHandIndex1
									{
										OFFSET 0.70726 -0.00000 0.00000
										CHANNELS 3 Zrotation Yrotation Xrotation
										End Site
										{
											OFFSET 0.57022 -0.00000 0.00000
										}
									}
								}
								JOINT LThumb
								{
									OFFSET 0 0 0
									CHANNELS 3 Zrotation Yrotation Xrotation
									End Site
									{
										OFFSET 0.57892 -0.00000 0.57892
									}
								}
							}
						}
					}
				}
				JOINT RightShoulder
				{
					OFFSET 0 0 0
					CHANNELS 3 Zrotation Yrotation Xrotation
					JOINT RightArm
					{
						OFFSET -2.80694 1.55459 -0.32496
						CHANNELS 3 Zrotation Yrotation Xrotation
						JOINT RightForeArm
						{
							OFFSET -4.71925 -0.00000 -0.00000
							CHANNELS 3 Zrotation Yrotation Xrotation
							JOINT RightHand
							{
								OFFSET -3.56990 -0.00000 0.00000
								CHANNELS 3 Zrotation Yrotation Xrotation
								JOINT RightFingerBase
								{
									OFFSET 0 0 0
									CHANNELS 3 Zrotation Yrotation Xrotation
									JOINT RightHandIndex1
									{
										OFFSET -0.50776 -0.00000 0.00000
										CHANNELS 3 Zrotation Yrotation Xrotation
										End Site
										{
											OFFSET -0.40937 -0.00000 0.00000
										}
									}
								}
								JOINT RThumb
								{
									OFFSET 0 0 0
									CHANNELS 3 Zrotation Yrotation Xrotation
									End Site
									{
										OFFSET -0.41562 -0.00000 0.41562
									}
								}
							}
						}
					}
				}
			}
		}
	}
}
MOTION
Frames: 10
Frame Time: .0083333
24.7338 16.1439 -8.6916 179.4700 -18.6062 -156.0220 0.0000 0.0000 0.0000 -17.6880 -15.7138 -36.8653 9.2730 16.9802 57.0294 0.4496 -1.0313 -12.3485 1.5219 -7.7898 -22.0776 0.0000 0.0000 0.0000 16.5365 14.5878 -29.6149 -0.2259 -3.0590 8.4431 -0.2784 -2.3266 -11.0996 -0.3632 3.8715 -10.7154 -5.4192 -0.8871 -25.7608 -1.0171 0.5125 1.4284 2.1060 -0.2528 16.2143 -3.9540 0.6493 -0.7895 7.6084 -1.4033 19.0172 2.9577 -0.9236 5.9088 -0.0000 -0.0000 0.0000 -83.3158 4.8496 7.0177 10.0724 -16.8528 -1.4959 -0.0000 -0.0000 8.3960 21.3369 -11.5226 -4.4617 -7.1250 0.0000 -0.0000 -4.0666 17.6532 2.6486 -0.0000 -0.0000 0.0000 87.7163 0.8966 12.7947 -22.0936 33.0826 -6.6369 0.0000 -0.0000 -5.8896 -12.1893 -55.3356 10.0746 7.1250 -0.0000 -0.0000 76.0546 -76.3001 -62.0017
24.7432 16.1543 -8.7368 179.4260 -19.1578 -155.8780 0.0000 0.0000 0.0000 -17.7486 -16.0375 -37.1231 8.9289 16.7617 55.8439 0.4901 -1.1620 -12.8727 1.5182 -7.7807 -22.0498 0.0000 0.0000 0.0000 16.7419 13.9962 -30.0768 -0.2613 -3.2887 9.0835 -0.3282 -1.8837 -11.6769 -0.1997 2.8775 -7.9378 -5.4195 -0.8386 -25.7229 -1.0162 0.5832 1.4908 2.1348 -0.2217 16.2638 -3.6864 0.6172 -0.3461 7.2636 -1.3498 18.5563 2.8010 -0.9008 5.6846 -0.0000 -0.0000 0.0000 -83.3532 4.6728 7.7820 10.3002 -17.2078 -1.5626 -0.0000 -0.0000 7.2992 21.4355 -12.5162 -4.8633 -7.1250 0.0000 -0.0000 -4.0323 16.5874 2.7202 -0.0000 -0.0000 0.0000 87.3913 1.4581 12.9744 -21.9340 32.9024 -6.5500 0.0000 -0.0000 -5.6948 -12.7474 -55.5050 10.5617 7.1250 -0.0000 -0.0000 76.6912 -76.5291 -62.8693
24.7534 16.1621 -8.7758 179.4790 -19.5941 -155.7290 0.0000 0.0000 0.0000 -17.7486 -16.1814 -37.4953 8.5919 16.5378 54.6679 0.5278 -0.7691 -13.4803 1.8334 -8.5100 -24.2742 0.0000 0.0000 0.0000 17.0894 13.3688 -30.5462 -0.2936 -3.4845 9.6308 -0.3704 -1.3849 -12.0846 -0.1452 2.4558 -6.7671 -5.2921 -0.6655 -25.6467 -1.0612 0.7761 1.4786 2.0838 -0.1202 16.1908 -3.5273 0.6186 -0.1383 7.1121 -1.3534 18.6300 2.7262 -0.9088 5.6719 -0.0000 0.0000 0.0000 -83.3256 4.5993 8.6267 10.5275 -17.5604 -1.6305 -0.0000 -0.0000 6.1484 21.5684 -14.0154 -5.4684 -7.1250 0.0000 -0.0000 -4.0049 14.9807 2.8406 -0.0000 0.0000 0.0000 87.1965 1.8497 12.9903 -21.8216 32.7748 -6.4890 0.0000 -0.0000 -5.5214 -13.3889 -55.4594 11.0933 7.1250 -0.0000 -0.0000 76.4338 -76.7636 -62.8804
24.7665 16.1671 -8.8157 179.3190 -19.9445 -155.4520 0.0000 0.0000 0.0000 -17.9739 -16.3241 -37.8767 8.2427 16.2949 53.4321 0.5670 -0.1630 -14.1726 2.1060 -9.0834 -26.0565 0.0000 0.0000 0.0000 17.2150 12.7720 -30.5430 -0.2706 -3.3462 9.2440 -0.3631 -1.3527 -11.9560 -0.2252 3.0549 -8.4317 -5.3672 -0.5131 -25.6955 -1.2006 1.0203 1.4499 2.0574 -0.0122 16.1670 -3.5734 0.5959 -0.0558 7.2465 -1.3911 18.5559 2.7748 -0.9199 5.6369 -0.0000 0.0000 0.0000 -83.2555 4.4256 9.1058 10.6708 -17.7820 -1.6740 -0.0000 -0.0000 5.5850 21.5895 -14.7210 -5.7422 -7.1250 0.0000 -0.0000 -4.0253 14.2293 2.9197 -0.0000 0.0000 0.0000 87.1615 2.1894 12.8462 -21.7557 32.6998 -6.4534 0.0000 -0.0000 -5.2970 -13.7913 -55.7222 11.4658 7.1250 -0.0000 -0.0000 77.5397 -76.9402 -64.1449
24.7795 16.1734 -8.8542 179.0220 -20.3313 -155.0520 0.0000 0.0000 0.0000 -18.2831 -16.6284 -38.2453 7.8736 16.0255 52.1062 0.6257 0.0625 -14.9716 2.0837 -9.0382 -25.9150 0.0000 0.0000 0.0000 17.1253 12.3644 -30.3279 -0.2239 -3.0456 8.4057 -0.3246 -1.7770 -11.5610 -0.4067 4.0939 -11.3411 -5.5503 -0.4110 -25.7933 -1.3956 1.2396 1.4165 2.0179 0.0766 16.1679 -3.8095 0.6515 -0.5874 7.5776 -1.4127 19.1810 2.9254 -0.9184 5.9259 0.0000 -0.0000 0.0000 -83.0794 4.1437 9.6201 10.7766 -17.9451 -1.7065 -0.0000 -0.0000 5.1984 21.5879 -14.2670 -5.5694 -7.1250 0.0000 -0.0000 -4.0036 14.7114 2.8628 0.0000 -0.0000 0.0000 87.0904 2.6305 12.9379 -21.6935 32.6289 -6.4198 0.0000 -0.0000 -5.5468 -13.8366 -56.1090 11.5552 7.1250 -0.0000 -0.0000 79.2265 -76.9851 -65.8373
24.7886 16.1836 -8.8887 178.9820 -20.7894 -154.8510 0.0000 0.0000 0.0000 -18.3583 -16.7940 -38.4502 7.4919 15.7325 50.7111 0.7271 -0.1027 -16.0818 1.6647 -8.1297 -23.1086 0.0000 0.0000 0.0000 17.1600 12.3158 -30.2107 -0.2089 -2.9424 8.1186 -0.3195 -2.1762 -11.6999 -0.3764 3.9403 -10.9089 -5.5370 -0.2960 -25.7653 -1.4375 1.4012 1.4801 2.0235 0.1510 16.2193 -3.3943 0.4850 0.2629 7.2484 -1.4852 18.0982 2.7382 -0.9466 5.4451 0.0000 -0.0000 0.0000 -83.0140 3.8363 10.4835 10.9725 -18.2461 -1.7673 -0.0000 -0.0000 4.4006 21.6185 -13.6914 -5.3588 -7.1250 0.0000 -0.0000 -3.9554 15.3196 2.7766 0.0000 -0.0000 0.0000 86.7600 3.1777 13.3617 -21.6296 32.5559 -6.3854 0.0000 -0.0000 -5.8799 -13.3561 -56.3279 11.1771 7.1250 -0.0000 -0.0000 80.1711 -76.8195 -66.5801
24.7971 16.1944 -8.9207 179.0800 -21.1786 -154.8710 0.0000 0.0000 0.0000 -18.3618 -16.6949 -38.3961 7.0569 15.3796 49.0892 0.8437 -0.3694 -17.2404 0.8953 -6.0308 -16.8739 0.0000 0.0000 0.0000 17.3400 12.2975 -30.1216 -0.2174 -3.0019 8.2842 -0.3415 -2.2847 -12.1159 -0.2639 3.3048 -9.1286 -5.4215 -0.1180 -25.5836 -1.4167 1.6032 1.5841 2.0587 0.2522 16.2287 -3.5958 0.5312 -0.9814 7.0899 -1.4081 19.0209 2.7337 -0.8961 5.9437 0.0000 -0.0000 0.0000 -83.0958 3.4766 10.8311 11.1028 -18.4456 -1.8083 -0.0000 -0.0000 4.1284 21.6074 -13.7730 -5.3869 -7.1250 0.0000 -0.0000 -3.9668 15.2340 2.7919 0.0000 -0.0000 0.0000 86.4724 3.5604 13.6302 -21.7343 32.6754 -6.4418 0.0000 -0.0000 -5.8019 -13.2137 -56.3857 11.0639 7.1250 -0.0000 -0.0000 80.4142 -76.7698 -66.7639
24.8058 16.2003 -8.9570 179.0850 -21.5518 -154.7870 0.0000 0.0000 0.0000 -18.4518 -16.6188 -38.3926 6.6151 14.9990 47.4030 0.9104 0.1590 -18.0961 0.7875 -5.6649 -15.8153 0.0000 0.0000 0.0000 17.5287 12.1421 -29.9957 -0.2197 -3.0176 8.3278 -0.3584 -2.4442 -12.4716 -0.3052 3.5517 -9.8187 -5.3441 0.0393 -25.4367 -1.4885 1.7843 1.5306 1.9974 0.3481 16.0685 -3.4784 0.3960 -0.3876 6.7652 -1.5560 18.8400 2.6012 -0.9961 5.7923 0.0000 -0.0000 0.0000 -83.1015 3.3021 10.8350 11.1249 -18.4795 -1.8153 -0.0000 -0.0000 4.3095 21.6991 -14.0600 -5.5218 -7.1250 0.0000 -0.0000 -3.9177 14.9192 2.7836 0.0000 -0.0000 0.0000 86.4048 3.4881 13.8620 -22.0970 33.0865 -6.6387 0.0000 -0.0000 -5.9054 -13.6469 -55.6087 11.3293 7.1250 -0.0000 -0.0000 77.0578 -76.8758 -63.6070
24.8122 16.2026 -9.0007 179.1350 -22.0004 -154.5340 0.0000 0.0000 0.0000 -18.4294 -16.6425 -38.5912 6.2086 14.6275 45.8132 0.9619 0.8895 -18.8744 0.8289 -5.8085 -16.2297 0.0000 0.0000 0.0000 17.8029 11.9886 -29.9683 -0.2164 -2.9948 8.2643 -0.3898 -2.5841 -13.0253 -0.3423 3.7597 -10.4017 -5.2541 0.1429 -25.5986 -1.5404 1.9009 1.4331 1.9316 0.4092 16.0387 -3.3581 0.4739 -0.2977 6.6590 -1.4383 18.8559 2.5533 -0.9384 5.7749 0.0000 0.0000 0.0000 -83.0129 3.3549 11.3486 11.2937 -18.7370 -1.8692 -0.0000 -0.0000 4.0096 21.7209 -13.8666 -5.4538 -7.1250 0.0000 -0.0000 -3.8935 15.1226 2.7494 0.0000 0.0000 0.0000 86.3559 3.3995 14.2755 -22.3411 33.3604 -6.7725 0.0000 -0.0000 -6.1589 -14.7829 -54.1247 12.0698 7.1250 -0.0000 -0.0000 70.4592 -77.0839 -57.5477
24.8166 16.2057 -9.0400 179.1680 -22.4981 -154.2830 0.0000 0.0000 0.0000 -18.4250 -16.7123 -38.7153 5.8099 14.2416 44.2140 1.0246 1.2820 -19.6278 0.5229 -4.6341 -12.8678 0.0000 0.0000 0.0000 17.9089 12.0916 -29.6601 -0.1879 -2.7918 7.6997 -0.3853 -3.1379 -13.3021 -0.3956 4.0383 -11.1843 -5.1428 0.2396 -25.7052 -1.5798 1.9973 1.3403 1.8598 0.4637 15.9846 -3.2585 0.5585 -0.2062 6.4772 -1.2870 18.8299 2.4863 -0.8681 5.7427 -0.0000 0.0000 0.0000 -82.9493 3.5152 12.1137 11.5779 -19.1687 -1.9615 -0.0000 -0.0000 3.4398 21.5861 -13.3810 -5.2316 -7.1250 0.0000 -0.0000 -3.9637 15.6531 2.7539 -0.0000 0.0000 0.0000 86.2218 3.4410 14.8081 -22.4794 33.5146 -6.8487 0.0000 -0.0000 -6.5306 -15.8199 -53.7714 12.8747 7.1250 -0.0000 -0.0000 68.6644 -77.4112 -56.2215
